<?xml version="1.0" encoding="utf-8"?>
<!-- Generator: Adobe Illustrator 22.0.1, SVG Export Plug-In . SVG Version: 6.00 Build 0)  -->
<svg version="1.1" id="Layer_1" xmlns="http://www.w3.org/2000/svg" xmlns:xlink="http://www.w3.org/1999/xlink" x="0px" y="0px"
	 viewBox="0 0 260.1 71" style="enable-background:new 0 0 260.1 71;" xml:space="preserve">
<style type="text/css">
	.st0{fill:url(#SVGID_1_);}
	.st1{fill:url(#SVGID_2_);}
	.st2{fill:url(#SVGID_3_);}
	.st3{fill:url(#SVGID_4_);}
	.st4{fill:url(#SVGID_5_);}
	.st5{fill:#002A41;}
	.st6{fill:#112448;}
</style>
<image style="display:none;overflow:visible;enable-background:new    ;" width="200" height="75" xlink:href="9FBE2E7B.png"  transform="matrix(0.9999 0 0 0.9999 243.5167 142.1268)">
</image>
<g>
	
		<radialGradient id="SVGID_1_" cx="28.4571" cy="66.125" r="16.2123" gradientTransform="matrix(1 0 0 0.1542 0 55.9256)" gradientUnits="userSpaceOnUse">
		<stop  offset="0" style="stop-color:#BBBDBF"/>
		<stop  offset="1" style="stop-color:#FFFFFF;stop-opacity:0"/>
	</radialGradient>
	<path class="st0" d="M44.4,66.1c0,1.3-7.1,2.4-15.9,2.4c-8.8,0-15.9-1.1-15.9-2.4c0-1.3,7.1-2.4,15.9-2.4
		C37.3,63.8,44.4,64.8,44.4,66.1z"/>
	<g>
		
			<linearGradient id="SVGID_2_" gradientUnits="userSpaceOnUse" x1="1643.6355" y1="347.6126" x2="1670.4894" y2="347.6126" gradientTransform="matrix(-1 0 0 -1 1690.3282 367.7692)">
			<stop  offset="0" style="stop-color:#FFC10E"/>
			<stop  offset="1" style="stop-color:#F26F21"/>
		</linearGradient>
		<path class="st1" d="M42.8,14.8c-10.3-7.7-22.9-7-22.9-7s23.4,9,21.2,24.7c0,0,5.5-2.1,5.6-11.3C46.7,18.7,44.2,15.9,42.8,14.8z"
			/>
		<linearGradient id="SVGID_3_" gradientUnits="userSpaceOnUse" x1="8.2694" y1="50.8191" x2="35.1233" y2="50.8191">
			<stop  offset="0" style="stop-color:#00ADEE"/>
			<stop  offset="1" style="stop-color:#102448"/>
		</linearGradient>
		<path class="st2" d="M12.2,56.1c10.3,7.7,22.9,7,22.9,7s-23.4-9-21.2-24.7c0,0-5.5,2.1-5.6,11.3C8.2,52.3,10.8,55.1,12.2,56.1z"/>
		<linearGradient id="SVGID_4_" gradientUnits="userSpaceOnUse" x1="7.8353" y1="25.1239" x2="54.9622" y2="25.1239">
			<stop  offset="0" style="stop-color:#102448"/>
			<stop  offset="1" style="stop-color:#00ADEE"/>
		</linearGradient>
		<path class="st3" d="M8.3,50.2c0,0-1.2-7,7.6-12.8c9.4-6.2,23-13.1,30.2-17.5c9.6-6,8.8-19.9,8.8-19.9s0,4.7-14.1,12.9
			c-8.6,5-15,8.2-24.1,14.1C4.9,34.6,8.3,50.2,8.3,50.2z"/>
		
			<linearGradient id="SVGID_5_" gradientUnits="userSpaceOnUse" x1="1643.2015" y1="321.917" x2="1690.3282" y2="321.917" gradientTransform="matrix(-1 0 0 -1 1690.3282 367.7692)">
			<stop  offset="0" style="stop-color:#EC1C24"/>
			<stop  offset="0.2209" style="stop-color:#F16522"/>
			<stop  offset="1" style="stop-color:#FFC10E"/>
		</linearGradient>
		<path class="st4" d="M46.7,20.7c0,0,1.2,7-7.6,12.8c-9.4,6.2-23,13.1-30.2,17.5C-0.8,57,0,71,0,71s0-4.7,14.1-12.9
			c8.6-5,15-8.2,24.1-14.1C50,36.4,46.7,20.7,46.7,20.7z"/>
	</g>
</g>
<path class="st5" d="M64.2,32.2V50h-2.1V27.1h2.1v1.5c1.9-1.9,4.1-2.8,6.7-2.8c2.7,0,4.9,0.8,6.6,2.5c1.7,1.7,2.6,3.8,2.6,6.4V50H78
	V34.9c0-1.9-0.7-3.6-2.1-5c-1.4-1.4-3.1-2.1-5-2.1c-1.9,0-3.6,0.7-5,2C65.1,30.6,64.6,31.4,64.2,32.2z"/>
<path class="st5" d="M111.7,50h-2.1v-4.7c-0.4,0.5-0.8,1.1-1.3,1.6c-2.5,2.5-5.5,3.7-9.1,3.7c-3.5,0-6.5-1.2-9-3.7
	c-2.5-2.5-3.7-5.5-3.7-9c0-3.5,1.2-6.6,3.7-9.1c2.5-2.5,5.5-3.7,9-3.7c3.5,0,6.6,1.2,9.1,3.7c0.5,0.5,0.9,1,1.3,1.6v-3.2h2.1V50z
	 M109.7,39.9v-4.1c-0.4-2.1-1.4-3.9-2.9-5.4c-2.1-2.1-4.6-3.1-7.5-3.1c-2.9,0-5.4,1-7.5,3.1c-2.1,2.1-3.1,4.6-3.1,7.5
	c0,2.9,1,5.4,3.1,7.5c2.1,2.1,4.6,3.1,7.5,3.1c2.9,0,5.4-1,7.5-3.1C108.3,43.7,109.3,42,109.7,39.9z"/>
<path class="st5" d="M120.8,12.7V50h-2.1V12.7H120.8z"/>
<path class="st5" d="M152.5,50h-2.1v-4.7c-0.4,0.5-0.8,1.1-1.3,1.6c-2.5,2.5-5.5,3.7-9.1,3.7c-3.5,0-6.5-1.2-9-3.7
	c-2.5-2.5-3.7-5.5-3.7-9c0-3.5,1.2-6.6,3.7-9.1c2.5-2.5,5.5-3.7,9-3.7c3.5,0,6.6,1.2,9.1,3.7c0.5,0.5,0.9,1,1.3,1.6v-3.2h2.1V50z
	 M150.4,39.9v-4.1c-0.4-2.1-1.4-3.9-2.9-5.4c-2.1-2.1-4.6-3.1-7.5-3.1c-2.9,0-5.4,1-7.5,3.1c-2.1,2.1-3.1,4.6-3.1,7.5
	c0,2.9,1,5.4,3.1,7.5c2.1,2.1,4.6,3.1,7.5,3.1c2.9,0,5.4-1,7.5-3.1C149,43.7,150,42,150.4,39.9z"/>
<path class="st5" d="M165.8,38.2c-1.8-1-3-1.8-3.7-2.5c-1.1-1.1-1.6-2.4-1.6-3.9c0-1.5,0.5-2.8,1.6-3.9c1.1-1.1,2.4-1.6,3.9-1.6
	c1.5,0,2.8,0.5,3.8,1.5c1,1,1.4,2.1,1.4,3.3v0.1l-1.8,0.7c-0.2-1.2-0.5-2.1-1.1-2.7c-0.6-0.6-1.3-0.9-2.3-0.9c-0.9,0-1.7,0.3-2.4,1
	c-0.7,0.7-1,1.5-1,2.4c0,0.9,0.3,1.7,1,2.4c0.4,0.4,1.2,1,2.5,1.8c2,1.1,3.4,2,4.2,2.9c1.3,1.3,2,2.9,2,4.8c0,1.9-0.7,3.5-2,4.8
	c-1.3,1.3-2.9,2-4.8,2c-1.9,0-3.5-0.7-4.8-2c-1.3-1.3-2-2.8-2-4.4l2.1-0.5c0,1.4,0.5,2.5,1.4,3.4c0.9,0.9,2,1.4,3.3,1.4
	c1.3,0,2.4-0.5,3.3-1.4c0.9-0.9,1.4-2,1.4-3.4c0-1.3-0.5-2.4-1.4-3.3C168.3,39.9,167.3,39.2,165.8,38.2z"/>
<path class="st5" d="M178.1,12.7h2.1v15.6c1.8-1.7,3.9-2.6,6.4-2.6c2.7,0,4.9,0.8,6.6,2.5c1.7,1.7,2.6,3.8,2.6,6.4V50h-2.1V34.9
	c0-1.9-0.7-3.6-2.1-5c-1.4-1.4-3.1-2.1-5-2.1c-1.9,0-3.6,0.7-5,2c-0.6,0.6-1.1,1.3-1.4,1.9V50h-2.1V12.7z"/>
<path class="st5" d="M227.5,50h-2.1v-4.7c-0.4,0.5-0.9,1.1-1.3,1.6c-2.5,2.5-5.5,3.7-9.1,3.7c-3.5,0-6.5-1.2-9-3.7
	c-2.5-2.5-3.8-5.5-3.8-9c0-3.5,1.3-6.6,3.8-9.1c2.5-2.5,5.5-3.7,9-3.7c3.5,0,6.6,1.2,9.1,3.7c0.5,0.5,0.9,1,1.3,1.6v-3.2h2.1V50z
	 M225.4,39.9v-4.1c-0.4-2.1-1.4-3.9-2.9-5.4c-2.1-2.1-4.6-3.1-7.5-3.1c-2.9,0-5.4,1-7.5,3.1c-2.1,2.1-3.1,4.6-3.1,7.5
	c0,2.9,1,5.4,3.1,7.5c2.1,2.1,4.6,3.1,7.5,3.1c2.9,0,5.4-1,7.5-3.1C224,43.7,225,42,225.4,39.9z"/>
<path class="st5" d="M259.1,50H257v-4.7c-0.4,0.5-0.8,1.1-1.3,1.6c-2.5,2.5-5.5,3.7-9.1,3.7c-3.5,0-6.5-1.2-9-3.7
	c-2.5-2.5-3.8-5.5-3.8-9c0-3.5,1.3-6.6,3.8-9.1c2.5-2.5,5.5-3.7,9-3.7c3.5,0,6.6,1.2,9.1,3.7c0.5,0.5,0.9,1,1.3,1.6v-3.2h2.1V50z
	 M257,39.9v-4.1c-0.4-2.1-1.4-3.9-2.9-5.4c-2.1-2.1-4.6-3.1-7.5-3.1c-2.9,0-5.4,1-7.5,3.1c-2.1,2.1-3.1,4.6-3.1,7.5
	c0,2.9,1,5.4,3.1,7.5c2.1,2.1,4.6,3.1,7.5,3.1c2.9,0,5.4-1,7.5-3.1C255.7,43.7,256.7,42,257,39.9z"/>
<g>
	<g>
		<path class="st6" d="M62.9,55.4h0.7v3.1h3.7v-3.1h0.7v7.4h-0.7v-3.6h-3.7v3.6h-0.7V55.4z"/>
		<path class="st6" d="M68.2,62.9h-1v-3.6h-3.5v3.6h-1v-7.6h1v3.1h3.5v-3.1h1V62.9z M67.5,62.7H68v-7.1h-0.5v3.1h-4v-3.1H63v7.1h0.5
			v-3.6h4V62.7z"/>
	</g>
	<g>
		<path class="st6" d="M79.5,61l0.6,0.3c-0.2,0.4-0.4,0.7-0.7,0.9c-0.3,0.2-0.5,0.4-0.9,0.5c-0.3,0.1-0.7,0.2-1.1,0.2
			c-0.9,0-1.6-0.3-2.1-0.9s-0.8-1.2-0.8-2c0-0.7,0.2-1.3,0.6-1.8c0.5-0.7,1.3-1,2.2-1c0.9,0,1.7,0.4,2.2,1.1
			c0.4,0.5,0.6,1.1,0.6,1.9h-4.9c0,0.6,0.2,1.2,0.6,1.6c0.4,0.4,0.9,0.6,1.4,0.6c0.3,0,0.5,0,0.8-0.1c0.3-0.1,0.5-0.2,0.7-0.4
			C79.1,61.6,79.3,61.3,79.5,61z M79.5,59.5c-0.1-0.4-0.2-0.7-0.4-0.9c-0.2-0.2-0.4-0.4-0.7-0.5c-0.3-0.1-0.6-0.2-0.9-0.2
			c-0.5,0-1,0.2-1.4,0.5c-0.3,0.3-0.5,0.6-0.6,1.1H79.5z"/>
		<path class="st6" d="M77.5,63c-0.9,0-1.7-0.3-2.2-0.9c-0.5-0.6-0.8-1.3-0.8-2.1c0-0.7,0.2-1.4,0.7-1.9c0.6-0.7,1.3-1.1,2.3-1.1
			c1,0,1.7,0.4,2.3,1.1c0.4,0.5,0.6,1.2,0.6,1.9l0,0.1h-4.9c0,0.5,0.2,1,0.6,1.3c0.4,0.4,0.8,0.6,1.4,0.6c0.3,0,0.5,0,0.8-0.1
			c0.2-0.1,0.5-0.2,0.6-0.4c0.2-0.1,0.4-0.4,0.6-0.7l0.1-0.1l0.8,0.4l-0.1,0.1c-0.2,0.4-0.4,0.7-0.7,1c-0.3,0.2-0.6,0.4-0.9,0.6
			C78.3,63,77.9,63,77.5,63z M77.4,57.3c-0.9,0-1.5,0.3-2.1,1c-0.4,0.5-0.6,1.1-0.6,1.8c0,0.7,0.2,1.3,0.7,1.9
			c0.5,0.6,1.1,0.8,2,0.8c0.4,0,0.7-0.1,1-0.2c0.3-0.1,0.6-0.3,0.8-0.5c0.2-0.2,0.4-0.5,0.6-0.8l-0.4-0.2c-0.2,0.3-0.4,0.5-0.6,0.7
			c-0.2,0.2-0.4,0.3-0.7,0.4c-0.3,0.1-0.6,0.2-0.9,0.2c-0.6,0-1.1-0.2-1.5-0.6c-0.4-0.4-0.6-1-0.6-1.6l0-0.1h4.9
			c0-0.7-0.2-1.2-0.6-1.7C79,57.6,78.3,57.3,77.4,57.3z M79.6,59.6h-4.4l0-0.2c0.1-0.5,0.4-0.9,0.7-1.2c0.4-0.4,0.9-0.5,1.5-0.5
			c0.3,0,0.7,0.1,1,0.2c0.3,0.1,0.6,0.3,0.8,0.6c0.2,0.2,0.3,0.6,0.4,0.9L79.6,59.6z M75.6,59.4h3.7c-0.1-0.3-0.2-0.5-0.3-0.7
			c-0.2-0.2-0.4-0.4-0.7-0.5C78,58.1,77.7,58,77.4,58c-0.5,0-0.9,0.2-1.3,0.5C75.9,58.7,75.7,59,75.6,59.4z"/>
	</g>
	<g>
		<path class="st6" d="M92.1,57.3v5.4h-0.7v-0.9c-0.3,0.4-0.6,0.6-1,0.8s-0.8,0.3-1.2,0.3c-0.8,0-1.4-0.3-2-0.8s-0.8-1.2-0.8-2
			c0-0.8,0.3-1.5,0.8-2c0.6-0.6,1.2-0.8,2-0.8c0.4,0,0.9,0.1,1.2,0.3c0.4,0.2,0.7,0.5,1,0.9v-1H92.1z M89.3,57.9
			c-0.4,0-0.7,0.1-1.1,0.3c-0.3,0.2-0.6,0.5-0.8,0.8c-0.2,0.3-0.3,0.7-0.3,1.1c0,0.4,0.1,0.7,0.3,1.1s0.5,0.6,0.8,0.8
			c0.3,0.2,0.7,0.3,1.1,0.3c0.4,0,0.7-0.1,1.1-0.3c0.3-0.2,0.6-0.5,0.8-0.8c0.2-0.3,0.3-0.7,0.3-1.1c0-0.6-0.2-1.2-0.6-1.6
			C90.4,58.1,89.9,57.9,89.3,57.9z"/>
		<path class="st6" d="M89.2,63c-0.8,0-1.5-0.3-2.1-0.9c-0.6-0.6-0.9-1.3-0.9-2.1c0-0.8,0.3-1.5,0.9-2.1c0.6-0.6,1.3-0.9,2.1-0.9
			c0.5,0,0.9,0.1,1.3,0.3c0.3,0.1,0.5,0.4,0.8,0.6v-0.8h0.9v5.7h-0.9v-0.7c-0.2,0.3-0.5,0.4-0.8,0.6C90.1,62.9,89.7,63,89.2,63z
			 M89.2,57.3c-0.7,0-1.4,0.3-1.9,0.8c-0.5,0.5-0.8,1.2-0.8,1.9c0,0.8,0.3,1.4,0.8,2c0.5,0.5,1.2,0.8,1.9,0.8c0.4,0,0.8-0.1,1.1-0.3
			c0.3-0.2,0.7-0.4,0.9-0.8l0.2-0.3v1.2H92v-5.2h-0.4v1.3l-0.2-0.3c-0.3-0.4-0.6-0.6-0.9-0.8C90.1,57.4,89.7,57.3,89.2,57.3z
			 M89.3,62.4c-0.4,0-0.8-0.1-1.1-0.3c-0.4-0.2-0.6-0.5-0.8-0.9c-0.2-0.4-0.3-0.8-0.3-1.2c0-0.4,0.1-0.8,0.3-1.2
			c0.2-0.4,0.5-0.7,0.8-0.9c0.3-0.2,0.7-0.3,1.1-0.3c0.6,0,1.2,0.2,1.6,0.7c0.4,0.4,0.7,1,0.7,1.7c0,0.4-0.1,0.8-0.3,1.2
			c-0.2,0.3-0.5,0.6-0.8,0.8C90.1,62.3,89.7,62.4,89.3,62.4z M89.3,58c-0.4,0-0.7,0.1-1,0.3c-0.3,0.2-0.6,0.4-0.7,0.8
			c-0.2,0.3-0.3,0.7-0.3,1c0,0.4,0.1,0.7,0.3,1c0.2,0.3,0.4,0.6,0.7,0.8c0.6,0.4,1.4,0.4,2,0c0.3-0.2,0.6-0.4,0.7-0.7
			c0.2-0.3,0.3-0.7,0.3-1.1c0-0.6-0.2-1.1-0.6-1.5C90.4,58.2,89.9,58,89.3,58z"/>
	</g>
	<g>
		<path class="st6" d="M98.7,55.2h0.7v7.5h-0.7V55.2z"/>
		<path class="st6" d="M99.5,62.9h-1v-7.8h1V62.9z M98.8,62.7h0.5v-7.3h-0.5V62.7z"/>
	</g>
	<g>
		<path class="st6" d="M106.6,55.3h0.7v2h1.1v0.6h-1.1v4.8h-0.7v-4.8h-1v-0.6h1V55.3z"/>
		<path class="st6" d="M107.4,62.9h-1v-4.8h-1v-0.9h1v-2h1v2h1.1v0.9h-1.1V62.9z M106.7,62.7h0.5v-4.8h1.1v-0.4h-1.1v-2h-0.5v2h-1
			v0.4h1V62.7z"/>
	</g>
	<g>
		<path class="st6" d="M114.6,55.2h0.7v3.1c0.3-0.4,0.6-0.7,0.9-0.8c0.3-0.2,0.7-0.3,1.1-0.3c0.4,0,0.8,0.1,1.1,0.3
			c0.3,0.2,0.5,0.5,0.7,0.8c0.2,0.3,0.2,0.9,0.2,1.6v2.8h-0.7v-2.6c0-0.6,0-1-0.1-1.3c-0.1-0.4-0.2-0.6-0.5-0.8
			c-0.2-0.2-0.5-0.3-0.9-0.3c-0.4,0-0.8,0.1-1.1,0.4c-0.3,0.3-0.6,0.6-0.7,1c-0.1,0.3-0.1,0.8-0.1,1.5v2h-0.7V55.2z"/>
		<path class="st6" d="M119.4,62.9h-1v-2.7c0-0.6,0-1-0.1-1.2c-0.1-0.3-0.2-0.6-0.4-0.7c-0.2-0.2-0.5-0.2-0.8-0.2
			c-0.4,0-0.7,0.1-1.1,0.4c-0.3,0.3-0.5,0.6-0.6,1c-0.1,0.3-0.1,0.7-0.1,1.4v2.1h-1v-7.8h1V58c0.2-0.3,0.5-0.5,0.8-0.6
			c0.4-0.2,0.7-0.3,1.2-0.3c0.4,0,0.8,0.1,1.2,0.3c0.3,0.2,0.6,0.5,0.7,0.9c0.2,0.4,0.2,0.9,0.2,1.7V62.9z M118.7,62.7h0.5V60
			c0-0.7-0.1-1.3-0.2-1.6c-0.1-0.3-0.4-0.6-0.7-0.8c-0.3-0.2-0.6-0.3-1-0.3c-0.4,0-0.7,0.1-1,0.3c-0.3,0.2-0.6,0.4-0.9,0.8l-0.2,0.3
			v-3.3h-0.5v7.3h0.5v-1.9c0-0.7,0-1.2,0.1-1.5c0.1-0.4,0.4-0.8,0.7-1.1c0.4-0.3,0.8-0.4,1.2-0.4c0.4,0,0.7,0.1,1,0.3
			c0.3,0.2,0.4,0.5,0.5,0.9c0.1,0.2,0.1,0.6,0.1,1.3V62.7z"/>
	</g>
	<g>
		<path class="st6" d="M131.2,58.5l-0.6,0.3c-0.5-0.6-1.1-1-2-1c-0.7,0-1.2,0.2-1.7,0.6c-0.4,0.4-0.7,0.9-0.7,1.6
			c0,0.4,0.1,0.8,0.3,1.1c0.2,0.3,0.5,0.6,0.8,0.8c0.4,0.2,0.7,0.3,1.2,0.3c0.8,0,1.5-0.3,2-1l0.6,0.4c-0.3,0.4-0.6,0.7-1,0.9
			c-0.4,0.2-0.9,0.3-1.5,0.3c-0.9,0-1.6-0.3-2.1-0.8c-0.6-0.5-0.9-1.2-0.9-2c0-0.5,0.1-1,0.4-1.5c0.3-0.5,0.6-0.8,1.1-1.1
			c0.5-0.3,1-0.4,1.6-0.4c0.4,0,0.7,0.1,1,0.2c0.3,0.1,0.6,0.3,0.9,0.4C130.9,58,131.1,58.2,131.2,58.5z"/>
		<path class="st6" d="M128.7,63c-0.9,0-1.6-0.3-2.2-0.9c-0.6-0.6-0.9-1.3-0.9-2.1c0-0.5,0.1-1.1,0.4-1.5c0.3-0.5,0.7-0.8,1.1-1.1
			c0.5-0.3,1-0.4,1.6-0.4c0.4,0,0.7,0.1,1.1,0.2s0.6,0.3,0.9,0.4c0.2,0.2,0.5,0.4,0.6,0.7l0.1,0.1l-0.8,0.5l-0.1-0.1
			c-0.5-0.6-1.1-0.9-1.9-0.9c-0.6,0-1.2,0.2-1.6,0.6c-0.4,0.4-0.6,0.9-0.6,1.5c0,0.4,0.1,0.7,0.3,1.1c0.2,0.3,0.5,0.6,0.8,0.8
			c0.3,0.2,0.7,0.3,1.1,0.3c0.8,0,1.4-0.3,1.9-0.9l0.1-0.1l0.8,0.5l-0.1,0.1c-0.3,0.4-0.6,0.7-1.1,1C129.8,62.9,129.3,63,128.7,63z
			 M128.7,57.3c-0.5,0-1.1,0.1-1.5,0.4c-0.4,0.2-0.8,0.6-1,1s-0.4,0.9-0.4,1.4c0,0.7,0.3,1.4,0.8,1.9c0.5,0.5,1.2,0.8,2.1,0.8
			c0.5,0,1-0.1,1.4-0.3c0.4-0.2,0.7-0.4,0.9-0.8l-0.4-0.2c-0.5,0.6-1.2,0.9-2,0.9c-0.5,0-0.9-0.1-1.2-0.3c-0.4-0.2-0.7-0.5-0.9-0.9
			c-0.2-0.4-0.3-0.8-0.3-1.2c0-0.6,0.2-1.2,0.7-1.6c0.5-0.4,1-0.7,1.7-0.7c0.8,0,1.5,0.3,2,0.9l0.4-0.2c-0.1-0.2-0.3-0.4-0.5-0.5
			c-0.2-0.2-0.5-0.3-0.8-0.4C129.4,57.4,129.1,57.3,128.7,57.3z"/>
	</g>
	<g>
		<path class="st6" d="M143.1,57.3v5.4h-0.7v-0.9c-0.3,0.4-0.6,0.6-1,0.8c-0.4,0.2-0.8,0.3-1.2,0.3c-0.8,0-1.4-0.3-2-0.8
			c-0.5-0.6-0.8-1.2-0.8-2c0-0.8,0.3-1.5,0.8-2c0.6-0.6,1.2-0.8,2-0.8c0.4,0,0.9,0.1,1.2,0.3s0.7,0.5,1,0.9v-1H143.1z M140.3,57.9
			c-0.4,0-0.7,0.1-1.1,0.3c-0.3,0.2-0.6,0.5-0.8,0.8c-0.2,0.3-0.3,0.7-0.3,1.1c0,0.4,0.1,0.7,0.3,1.1s0.5,0.6,0.8,0.8
			c0.3,0.2,0.7,0.3,1.1,0.3c0.4,0,0.7-0.1,1.1-0.3c0.3-0.2,0.6-0.5,0.8-0.8c0.2-0.3,0.3-0.7,0.3-1.1c0-0.6-0.2-1.2-0.6-1.6
			C141.4,58.1,140.9,57.9,140.3,57.9z"/>
		<path class="st6" d="M140.2,63c-0.8,0-1.5-0.3-2.1-0.9c-0.6-0.6-0.9-1.3-0.9-2.1c0-0.8,0.3-1.5,0.9-2.1c0.6-0.6,1.3-0.9,2.1-0.9
			c0.5,0,0.9,0.1,1.3,0.3c0.3,0.1,0.5,0.4,0.8,0.6v-0.8h0.9v5.7h-0.9v-0.7c-0.2,0.3-0.5,0.4-0.8,0.6C141.1,62.9,140.7,63,140.2,63z
			 M140.3,57.3c-0.7,0-1.4,0.3-1.9,0.8c-0.5,0.5-0.8,1.2-0.8,1.9c0,0.8,0.3,1.4,0.8,2c0.5,0.5,1.2,0.8,1.9,0.8
			c0.4,0,0.8-0.1,1.1-0.3c0.3-0.2,0.7-0.4,0.9-0.8l0.2-0.3v1.2h0.4v-5.2h-0.4v1.3l-0.2-0.3c-0.3-0.4-0.6-0.6-0.9-0.8
			C141.1,57.4,140.7,57.3,140.3,57.3z M140.3,62.4c-0.4,0-0.8-0.1-1.1-0.3c-0.3-0.2-0.6-0.5-0.8-0.9c-0.2-0.4-0.3-0.8-0.3-1.2
			c0-0.4,0.1-0.8,0.3-1.2c0.2-0.4,0.5-0.7,0.8-0.9c0.3-0.2,0.7-0.3,1.1-0.3c0.6,0,1.2,0.2,1.6,0.7c0.4,0.4,0.7,1,0.7,1.7
			c0,0.4-0.1,0.8-0.3,1.2c-0.2,0.3-0.5,0.6-0.8,0.8C141.1,62.3,140.7,62.4,140.3,62.4z M140.3,58c-0.4,0-0.7,0.1-1,0.3
			c-0.3,0.2-0.6,0.4-0.7,0.8c-0.2,0.3-0.3,0.7-0.3,1c0,0.4,0.1,0.7,0.3,1c0.2,0.3,0.4,0.6,0.7,0.8c0.6,0.4,1.4,0.4,2,0
			c0.3-0.2,0.6-0.4,0.7-0.7c0.2-0.3,0.3-0.7,0.3-1.1c0-0.6-0.2-1.1-0.6-1.5C141.4,58.2,140.9,58,140.3,58z"/>
	</g>
	<g>
		<path class="st6" d="M149.6,57.3h0.7v0.8c0.2-0.3,0.4-0.5,0.7-0.7c0.2-0.2,0.5-0.2,0.7-0.2c0.2,0,0.4,0.1,0.6,0.2l-0.4,0.6
			c-0.1-0.1-0.3-0.1-0.4-0.1c-0.2,0-0.5,0.1-0.7,0.3c-0.2,0.2-0.4,0.5-0.5,0.9c-0.1,0.3-0.1,0.9-0.1,1.9v1.8h-0.7V57.3z"/>
		<path class="st6" d="M150.4,62.9h-1v-5.7h1v0.5c0.2-0.2,0.3-0.3,0.5-0.4c0.5-0.3,0.9-0.4,1.5-0.1l0.1,0.1l-0.5,0.8l-0.1,0
			c-0.1-0.1-0.2-0.1-0.3-0.1c-0.2,0-0.4,0.1-0.6,0.3c-0.2,0.2-0.4,0.5-0.5,0.8c-0.1,0.3-0.1,0.9-0.1,1.8V62.9z M149.7,62.7h0.5v-1.7
			c0-1,0-1.6,0.1-1.9c0.1-0.4,0.3-0.7,0.5-1c0.2-0.2,0.5-0.3,0.8-0.3c0.1,0,0.2,0,0.3,0.1l0.2-0.4c-0.4-0.2-0.8-0.1-1.1,0.1
			c-0.2,0.1-0.4,0.4-0.6,0.7l-0.2,0.3v-1.1h-0.5V62.7z"/>
	</g>
	<g>
		<path class="st6" d="M162.6,61l0.6,0.3c-0.2,0.4-0.4,0.7-0.7,0.9c-0.3,0.2-0.5,0.4-0.9,0.5c-0.3,0.1-0.7,0.2-1.1,0.2
			c-0.9,0-1.6-0.3-2.1-0.9s-0.8-1.2-0.8-2c0-0.7,0.2-1.3,0.6-1.8c0.5-0.7,1.3-1,2.2-1c0.9,0,1.7,0.4,2.2,1.1
			c0.4,0.5,0.6,1.1,0.6,1.9h-4.9c0,0.6,0.2,1.2,0.6,1.6c0.4,0.4,0.9,0.6,1.4,0.6c0.3,0,0.5,0,0.8-0.1s0.5-0.2,0.7-0.4
			C162.2,61.6,162.4,61.3,162.6,61z M162.6,59.5c-0.1-0.4-0.2-0.7-0.4-0.9c-0.2-0.2-0.4-0.4-0.7-0.5c-0.3-0.1-0.6-0.2-0.9-0.2
			c-0.5,0-1,0.2-1.4,0.5c-0.3,0.3-0.5,0.6-0.6,1.1H162.6z"/>
		<path class="st6" d="M160.6,63c-0.9,0-1.7-0.3-2.2-0.9c-0.5-0.6-0.8-1.3-0.8-2.1c0-0.7,0.2-1.4,0.7-1.9c0.6-0.7,1.3-1.1,2.3-1.1
			c1,0,1.7,0.4,2.3,1.1c0.4,0.5,0.6,1.2,0.6,1.9l0,0.1h-4.9c0,0.5,0.2,1,0.6,1.3c0.4,0.4,0.8,0.6,1.4,0.6c0.3,0,0.5,0,0.8-0.1
			c0.2-0.1,0.5-0.2,0.6-0.4c0.2-0.1,0.4-0.4,0.6-0.7l0.1-0.1l0.8,0.4l-0.1,0.1c-0.2,0.4-0.4,0.7-0.7,1c-0.3,0.2-0.6,0.4-0.9,0.6
			C161.4,63,161,63,160.6,63z M160.6,57.3c-0.9,0-1.5,0.3-2.1,1c-0.4,0.5-0.6,1.1-0.6,1.8c0,0.7,0.2,1.3,0.7,1.9
			c0.5,0.6,1.1,0.8,2,0.8c0.4,0,0.7-0.1,1-0.2c0.3-0.1,0.6-0.3,0.8-0.5c0.2-0.2,0.4-0.5,0.6-0.8l-0.4-0.2c-0.2,0.3-0.4,0.5-0.6,0.7
			c-0.2,0.2-0.4,0.3-0.7,0.4c-0.3,0.1-0.6,0.2-0.9,0.2c-0.6,0-1.1-0.2-1.5-0.6c-0.4-0.4-0.6-1-0.6-1.6l0-0.1h4.9
			c0-0.7-0.2-1.2-0.6-1.7C162.1,57.6,161.4,57.3,160.6,57.3z M162.8,59.6h-4.4l0-0.2c0.1-0.5,0.4-0.9,0.7-1.2
			c0.4-0.4,0.9-0.5,1.5-0.5c0.3,0,0.7,0.1,1,0.2c0.3,0.1,0.6,0.3,0.8,0.6c0.2,0.2,0.3,0.6,0.4,0.9L162.8,59.6z M158.7,59.4h3.7
			c-0.1-0.3-0.2-0.5-0.3-0.7c-0.2-0.2-0.4-0.4-0.7-0.5c-0.3-0.1-0.6-0.2-0.9-0.2c-0.5,0-0.9,0.2-1.3,0.5
			C159,58.7,158.9,59,158.7,59.4z"/>
	</g>
	<g>
		<path class="st6" d="M177.1,61.4l0.6-0.4c0.4,0.8,0.9,1.2,1.5,1.2c0.2,0,0.5-0.1,0.7-0.2c0.2-0.1,0.4-0.3,0.5-0.5
			c0.1-0.2,0.2-0.4,0.2-0.6c0-0.2-0.1-0.5-0.3-0.7c-0.2-0.3-0.7-0.7-1.3-1.2c-0.6-0.5-1-0.8-1.1-1c-0.3-0.3-0.4-0.7-0.4-1.1
			c0-0.3,0.1-0.6,0.2-0.9c0.2-0.3,0.4-0.5,0.6-0.6c0.3-0.2,0.6-0.2,0.9-0.2c0.3,0,0.7,0.1,1,0.3s0.6,0.5,1,0.9l-0.6,0.5
			c-0.3-0.4-0.5-0.6-0.7-0.7c-0.2-0.1-0.4-0.2-0.6-0.2c-0.3,0-0.5,0.1-0.7,0.3c-0.2,0.2-0.3,0.4-0.3,0.7c0,0.2,0,0.3,0.1,0.5
			c0.1,0.2,0.2,0.3,0.4,0.5c0.1,0.1,0.4,0.3,1,0.7c0.6,0.5,1.1,0.9,1.3,1.3c0.2,0.4,0.4,0.7,0.4,1.1c0,0.5-0.2,1-0.6,1.4
			c-0.4,0.4-0.9,0.6-1.5,0.6c-0.4,0-0.9-0.1-1.2-0.4C177.8,62.4,177.4,62,177.1,61.4z"/>
		<path class="st6" d="M179.3,63.1c-0.5,0-0.9-0.1-1.3-0.4c-0.4-0.2-0.7-0.7-1-1.2l-0.1-0.1l0.8-0.5l0.1,0.1
			c0.4,0.8,0.9,1.2,1.4,1.2c0.2,0,0.4-0.1,0.6-0.2c0.2-0.1,0.3-0.2,0.4-0.4c0.1-0.2,0.2-0.4,0.2-0.6c0-0.2-0.1-0.4-0.2-0.7
			c-0.2-0.3-0.6-0.7-1.2-1.2c-0.6-0.5-1-0.8-1.2-1c-0.3-0.4-0.4-0.8-0.4-1.2c0-0.3,0.1-0.7,0.2-0.9s0.4-0.5,0.7-0.7
			c0.6-0.3,1.4-0.3,2,0c0.3,0.2,0.7,0.5,1,1l0.1,0.1l-0.8,0.6l-0.1-0.1c-0.3-0.4-0.5-0.6-0.7-0.7c-0.2-0.1-0.4-0.2-0.6-0.2
			c-0.3,0-0.5,0.1-0.6,0.2c-0.2,0.2-0.2,0.3-0.2,0.6c0,0.1,0,0.3,0.1,0.4c0.1,0.1,0.2,0.3,0.3,0.5c0.1,0.1,0.4,0.3,0.9,0.7
			c0.6,0.5,1.1,0.9,1.3,1.3c0.2,0.4,0.4,0.8,0.4,1.2c0,0.6-0.2,1.1-0.6,1.5C180.5,62.9,180,63.1,179.3,63.1z M177.3,61.4
			c0.3,0.5,0.6,0.8,0.9,1c0.3,0.2,0.7,0.3,1.1,0.3c0.6,0,1-0.2,1.4-0.6c0.4-0.4,0.6-0.8,0.6-1.3c0-0.3-0.1-0.7-0.3-1
			c-0.2-0.4-0.7-0.8-1.3-1.2c-0.5-0.4-0.9-0.6-1-0.7c-0.2-0.2-0.3-0.4-0.4-0.5c-0.1-0.2-0.1-0.3-0.1-0.5c0-0.3,0.1-0.6,0.3-0.8
			c0.2-0.2,0.5-0.3,0.8-0.3c0.3,0,0.5,0.1,0.7,0.2c0.2,0.1,0.4,0.3,0.7,0.7l0.4-0.3c-0.3-0.4-0.6-0.7-0.8-0.8
			c-0.5-0.3-1.2-0.3-1.8,0c-0.3,0.1-0.5,0.3-0.6,0.6c-0.1,0.2-0.2,0.5-0.2,0.8c0,0.4,0.1,0.7,0.4,1.1c0.1,0.2,0.5,0.5,1.1,1
			c0.6,0.5,1.1,0.9,1.3,1.2c0.2,0.3,0.3,0.5,0.3,0.8c0,0.2-0.1,0.5-0.2,0.7c-0.1,0.2-0.3,0.4-0.5,0.5c-0.2,0.1-0.5,0.2-0.8,0.2
			c-0.6,0-1.1-0.4-1.6-1.2L177.3,61.4z"/>
	</g>
	<g>
		<path class="st6" d="M190.6,57.2c0.8,0,1.5,0.3,2.1,0.9c0.5,0.6,0.8,1.2,0.8,2c0,0.8-0.3,1.4-0.8,2c-0.5,0.6-1.2,0.9-2,0.9
			c-0.8,0-1.5-0.3-2-0.9c-0.5-0.6-0.8-1.2-0.8-2c0-0.8,0.3-1.4,0.8-2C189,57.5,189.7,57.2,190.6,57.2z M190.6,57.9
			c-0.6,0-1.1,0.2-1.5,0.6c-0.4,0.4-0.6,1-0.6,1.6c0,0.4,0.1,0.8,0.3,1.1c0.2,0.3,0.4,0.6,0.8,0.8c0.3,0.2,0.7,0.3,1.1,0.3
			s0.7-0.1,1.1-0.3c0.3-0.2,0.6-0.4,0.8-0.8c0.2-0.3,0.3-0.7,0.3-1.1c0-0.6-0.2-1.1-0.6-1.6C191.6,58.1,191.1,57.9,190.6,57.9z"/>
		<path class="st6" d="M190.6,63c-0.9,0-1.6-0.3-2.1-0.9c-0.5-0.6-0.8-1.3-0.8-2.1c0-0.8,0.3-1.5,0.8-2c0.6-0.6,1.3-1,2.2-1
			c0.9,0,1.6,0.3,2.2,1c0.5,0.6,0.8,1.3,0.8,2.1c0,0.8-0.3,1.5-0.8,2.1C192.2,62.7,191.4,63,190.6,63z M190.6,57.3
			c-0.8,0-1.5,0.3-2,0.9c-0.5,0.5-0.7,1.2-0.7,1.9c0,0.7,0.3,1.4,0.8,1.9c0.5,0.5,1.2,0.8,2,0.8c0.8,0,1.4-0.3,2-0.8
			c0.5-0.5,0.8-1.2,0.8-1.9c0-0.7-0.2-1.4-0.7-1.9C192,57.6,191.4,57.3,190.6,57.3z M190.6,62.4c-0.4,0-0.8-0.1-1.1-0.3
			c-0.3-0.2-0.6-0.5-0.8-0.8c-0.2-0.4-0.3-0.7-0.3-1.2c0-0.6,0.2-1.2,0.7-1.6c0.4-0.5,1-0.7,1.6-0.7c0.6,0,1.1,0.2,1.6,0.7
			c0.4,0.5,0.7,1,0.7,1.6c0,0.4-0.1,0.8-0.3,1.2c-0.2,0.4-0.5,0.6-0.8,0.8C191.4,62.3,191,62.4,190.6,62.4z M190.6,58
			c-0.6,0-1,0.2-1.4,0.6c-0.4,0.4-0.6,0.9-0.6,1.5c0,0.4,0.1,0.7,0.3,1c0.2,0.3,0.4,0.6,0.7,0.7c0.6,0.3,1.4,0.3,2,0
			c0.3-0.2,0.5-0.4,0.7-0.7c0.2-0.3,0.3-0.7,0.3-1c0-0.6-0.2-1.1-0.6-1.5C191.6,58.2,191.1,58,190.6,58z"/>
	</g>
	<g>
		<path class="st6" d="M199.7,55.2h0.7v7.5h-0.7V55.2z"/>
		<path class="st6" d="M200.5,62.9h-1v-7.8h1V62.9z M199.8,62.7h0.5v-7.3h-0.5V62.7z"/>
	</g>
	<g>
		<path class="st6" d="M206.9,57.3h0.7v2.5c0,0.6,0,1,0.1,1.3c0.1,0.3,0.3,0.6,0.6,0.8c0.3,0.2,0.6,0.3,1,0.3c0.4,0,0.7-0.1,1-0.3
			c0.3-0.2,0.5-0.4,0.6-0.7c0.1-0.2,0.1-0.7,0.1-1.3v-2.5h0.7V60c0,0.8-0.1,1.3-0.3,1.7s-0.4,0.7-0.8,0.9c-0.4,0.2-0.8,0.3-1.3,0.3
			c-0.5,0-1-0.1-1.3-0.3c-0.4-0.2-0.6-0.5-0.8-0.9c-0.2-0.4-0.3-1-0.3-1.7V57.3z"/>
		<path class="st6" d="M209.3,63c-0.6,0-1-0.1-1.4-0.3c-0.4-0.2-0.7-0.5-0.8-1c-0.2-0.4-0.3-1-0.3-1.8v-2.7h1v2.7c0,0.6,0,1,0.1,1.2
			c0.1,0.3,0.3,0.5,0.5,0.7c0.3,0.2,0.6,0.3,0.9,0.3c0.4,0,0.7-0.1,0.9-0.3c0.2-0.2,0.4-0.4,0.5-0.7c0.1-0.2,0.1-0.6,0.1-1.3v-2.7h1
			V60c0,0.8-0.1,1.4-0.3,1.7c-0.2,0.4-0.5,0.7-0.8,0.9C210.3,62.9,209.8,63,209.3,63z M207,57.5V60c0,0.8,0.1,1.3,0.3,1.7
			c0.2,0.4,0.4,0.6,0.7,0.8c0.3,0.2,0.8,0.3,1.3,0.3s0.9-0.1,1.3-0.3c0.3-0.2,0.6-0.5,0.7-0.8c0.2-0.4,0.3-0.9,0.3-1.6v-2.5h-0.5
			v2.4c0,0.7,0,1.2-0.1,1.4c-0.1,0.3-0.3,0.6-0.6,0.8c-0.3,0.2-0.7,0.3-1.1,0.3c-0.4,0-0.8-0.1-1.1-0.3c-0.3-0.2-0.5-0.5-0.6-0.9
			c-0.1-0.3-0.1-0.7-0.1-1.3v-2.4H207z"/>
	</g>
	<g>
		<path class="st6" d="M219,55.3h0.7v2h1.1v0.6h-1.1v4.8H219v-4.8h-1v-0.6h1V55.3z"/>
		<path class="st6" d="M219.8,62.9h-1v-4.8h-1v-0.9h1v-2h1v2h1.1v0.9h-1.1V62.9z M219.1,62.7h0.5v-4.8h1.1v-0.4h-1.1v-2h-0.5v2h-1
			v0.4h1V62.7z"/>
	</g>
	<g>
		<path class="st6" d="M227.2,55.1c0.2,0,0.3,0.1,0.4,0.2c0.1,0.1,0.2,0.3,0.2,0.4c0,0.2-0.1,0.3-0.2,0.4c-0.1,0.1-0.2,0.2-0.4,0.2
			c-0.2,0-0.3-0.1-0.4-0.2c-0.1-0.1-0.2-0.2-0.2-0.4c0-0.2,0.1-0.3,0.2-0.4S227,55.1,227.2,55.1z M226.8,57.3h0.7v5.4h-0.7V57.3z"/>
		<path class="st6" d="M227.7,62.9h-1v-5.7h1V62.9z M227,62.7h0.5v-5.2H227V62.7z M227.2,56.4c-0.2,0-0.4-0.1-0.5-0.2
			c-0.1-0.1-0.2-0.3-0.2-0.5c0-0.2,0.1-0.4,0.2-0.5c0.3-0.3,0.7-0.3,1,0c0.1,0.1,0.2,0.3,0.2,0.5c0,0.2-0.1,0.4-0.2,0.5
			C227.6,56.3,227.4,56.4,227.2,56.4z M227.2,55.2c-0.1,0-0.2,0-0.3,0.1c-0.1,0.1-0.1,0.2-0.1,0.3c0,0.1,0,0.2,0.1,0.3
			c0.2,0.2,0.5,0.2,0.6,0c0.1-0.1,0.1-0.2,0.1-0.3c0-0.1,0-0.2-0.1-0.3C227.4,55.3,227.3,55.2,227.2,55.2z"/>
	</g>
	<g>
		<path class="st6" d="M236.7,57.2c0.8,0,1.5,0.3,2.1,0.9c0.5,0.6,0.8,1.2,0.8,2c0,0.8-0.3,1.4-0.8,2c-0.5,0.6-1.2,0.9-2,0.9
			c-0.8,0-1.5-0.3-2-0.9c-0.5-0.6-0.8-1.2-0.8-2c0-0.8,0.3-1.4,0.8-2C235.2,57.5,235.9,57.2,236.7,57.2z M236.7,57.9
			c-0.6,0-1.1,0.2-1.5,0.6c-0.4,0.4-0.6,1-0.6,1.6c0,0.4,0.1,0.8,0.3,1.1c0.2,0.3,0.4,0.6,0.8,0.8c0.3,0.2,0.7,0.3,1.1,0.3
			c0.4,0,0.7-0.1,1.1-0.3c0.3-0.2,0.6-0.4,0.8-0.8c0.2-0.3,0.3-0.7,0.3-1.1c0-0.6-0.2-1.1-0.6-1.6C237.8,58.1,237.3,57.9,236.7,57.9
			z"/>
		<path class="st6" d="M236.7,63c-0.9,0-1.6-0.3-2.1-0.9c-0.5-0.6-0.8-1.3-0.8-2.1c0-0.8,0.3-1.5,0.8-2c0.6-0.6,1.3-1,2.2-1
			c0.9,0,1.6,0.3,2.2,1c0.5,0.6,0.8,1.3,0.8,2.1c0,0.8-0.3,1.5-0.8,2.1C238.3,62.7,237.6,63,236.7,63z M236.7,57.3
			c-0.8,0-1.5,0.3-2,0.9c-0.5,0.5-0.7,1.2-0.7,1.9c0,0.7,0.3,1.4,0.8,1.9c0.5,0.5,1.2,0.8,2,0.8c0.8,0,1.4-0.3,2-0.8
			c0.5-0.5,0.8-1.2,0.8-1.9c0-0.7-0.2-1.4-0.7-1.9C238.2,57.6,237.5,57.3,236.7,57.3z M236.7,62.4c-0.4,0-0.8-0.1-1.1-0.3
			c-0.3-0.2-0.6-0.5-0.8-0.8c-0.2-0.4-0.3-0.7-0.3-1.2c0-0.6,0.2-1.2,0.7-1.6c0.4-0.5,1-0.7,1.6-0.7c0.6,0,1.1,0.2,1.6,0.7
			c0.4,0.5,0.7,1,0.7,1.6c0,0.4-0.1,0.8-0.3,1.2c-0.2,0.4-0.5,0.6-0.8,0.8C237.5,62.3,237.1,62.4,236.7,62.4z M236.7,58
			c-0.6,0-1,0.2-1.4,0.6c-0.4,0.4-0.6,0.9-0.6,1.5c0,0.4,0.1,0.7,0.3,1c0.2,0.3,0.4,0.6,0.7,0.7c0.6,0.3,1.4,0.3,2,0
			c0.3-0.2,0.5-0.4,0.7-0.7c0.2-0.3,0.3-0.7,0.3-1c0-0.6-0.2-1.1-0.6-1.5C237.7,58.2,237.2,58,236.7,58z"/>
	</g>
	<g>
		<path class="st6" d="M246,57.3h0.7v1c0.3-0.4,0.6-0.7,0.9-0.8c0.3-0.2,0.7-0.3,1.1-0.3c0.4,0,0.8,0.1,1.1,0.3
			c0.3,0.2,0.5,0.5,0.7,0.8c0.2,0.4,0.2,0.9,0.2,1.6v2.8H250v-2.6c0-0.6,0-1-0.1-1.3c-0.1-0.4-0.2-0.6-0.5-0.8s-0.5-0.3-0.9-0.3
			c-0.4,0-0.8,0.1-1.1,0.4c-0.3,0.3-0.6,0.6-0.7,1c-0.1,0.3-0.1,0.8-0.1,1.5v2H246V57.3z"/>
		<path class="st6" d="M250.8,62.9h-1v-2.7c0-0.6,0-1-0.1-1.2c-0.1-0.3-0.2-0.6-0.4-0.7c-0.2-0.2-0.5-0.2-0.8-0.2
			c-0.4,0-0.7,0.1-1.1,0.4c-0.3,0.3-0.5,0.6-0.6,1c-0.1,0.3-0.1,0.7-0.1,1.4v2.1h-1v-5.7h1V58c0.2-0.3,0.5-0.5,0.7-0.6
			c0.4-0.2,0.8-0.3,1.2-0.3c0.4,0,0.8,0.1,1.2,0.3c0.3,0.2,0.6,0.5,0.7,0.9c0.2,0.4,0.2,0.9,0.2,1.7V62.9z M250.1,62.7h0.5V60
			c0-0.7-0.1-1.3-0.2-1.6c-0.1-0.3-0.4-0.6-0.7-0.8c-0.3-0.2-0.6-0.3-1-0.3c-0.4,0-0.7,0.1-1.1,0.3c-0.3,0.2-0.6,0.4-0.9,0.8
			l-0.2,0.3v-1.2h-0.5v5.2h0.5v-1.9c0-0.7,0-1.2,0.1-1.5c0.1-0.4,0.3-0.8,0.7-1.1c0.4-0.3,0.8-0.4,1.2-0.4c0.4,0,0.7,0.1,1,0.3
			c0.3,0.2,0.4,0.5,0.5,0.9c0.1,0.2,0.1,0.6,0.1,1.3V62.7z"/>
	</g>
	<g>
		<path class="st6" d="M260.1,57.9l-0.5,0.5c-0.4-0.4-0.7-0.5-1.1-0.5c-0.2,0-0.4,0.1-0.6,0.2c-0.2,0.2-0.2,0.3-0.2,0.5
			c0,0.2,0.1,0.3,0.2,0.5c0.1,0.2,0.4,0.4,0.8,0.6c0.5,0.3,0.9,0.5,1.1,0.8c0.2,0.3,0.3,0.5,0.3,0.9c0,0.4-0.2,0.8-0.5,1.1
			c-0.3,0.3-0.7,0.5-1.2,0.5c-0.3,0-0.6-0.1-0.9-0.2s-0.5-0.3-0.7-0.6l0.4-0.5c0.4,0.4,0.7,0.6,1.1,0.6c0.3,0,0.5-0.1,0.7-0.3
			s0.3-0.4,0.3-0.6c0-0.2-0.1-0.4-0.2-0.5c-0.1-0.2-0.4-0.3-0.9-0.6c-0.5-0.3-0.8-0.5-1-0.8c-0.2-0.2-0.3-0.5-0.3-0.8
			c0-0.4,0.1-0.8,0.4-1c0.3-0.3,0.6-0.4,1.1-0.4C259.1,57.2,259.6,57.4,260.1,57.9z"/>
		<path class="st6" d="M258.4,63c-0.3,0-0.7-0.1-1-0.2c-0.3-0.1-0.6-0.3-0.8-0.6l-0.1-0.1l0.6-0.7l0.1,0.1c0.3,0.4,0.7,0.6,1,0.6
			c0.3,0,0.5-0.1,0.6-0.2c0.2-0.2,0.3-0.3,0.3-0.5c0-0.2-0.1-0.3-0.2-0.5c-0.1-0.1-0.4-0.3-0.8-0.5c-0.5-0.3-0.9-0.5-1-0.8
			c-0.2-0.3-0.3-0.6-0.3-0.9c0-0.4,0.2-0.8,0.5-1.1c0.3-0.3,0.7-0.4,1.2-0.4c0.5,0,1.1,0.3,1.6,0.8l0.1,0.1l-0.6,0.6l-0.1-0.1
			c-0.3-0.3-0.7-0.5-1-0.5c-0.2,0-0.4,0.1-0.5,0.2c-0.1,0.1-0.2,0.3-0.2,0.4c0,0.1,0.1,0.3,0.2,0.4c0.1,0.2,0.4,0.3,0.8,0.5
			c0.5,0.3,0.9,0.5,1.1,0.8c0.2,0.3,0.3,0.6,0.3,0.9c0,0.5-0.2,0.9-0.5,1.2C259.4,62.9,258.9,63,258.4,63z M257,62.1
			c0.2,0.2,0.4,0.3,0.6,0.5c0.3,0.1,0.6,0.2,0.8,0.2c0.4,0,0.8-0.1,1.1-0.4s0.4-0.6,0.4-1c0-0.3-0.1-0.6-0.3-0.8
			c-0.2-0.2-0.5-0.5-1-0.7c-0.4-0.2-0.7-0.4-0.9-0.6c-0.2-0.2-0.2-0.4-0.2-0.6c0-0.2,0.1-0.4,0.3-0.6c0.2-0.2,0.4-0.3,0.7-0.3
			c0.4,0,0.7,0.2,1.1,0.5l0.3-0.3c-0.5-0.4-0.9-0.6-1.3-0.6c-0.4,0-0.7,0.1-1,0.4c-0.3,0.3-0.4,0.6-0.4,0.9c0,0.3,0.1,0.5,0.2,0.8
			c0.2,0.2,0.5,0.5,1,0.7c0.5,0.2,0.8,0.4,0.9,0.6c0.1,0.2,0.2,0.4,0.2,0.6c0,0.3-0.1,0.5-0.3,0.7c-0.2,0.2-0.5,0.3-0.8,0.3
			c-0.4,0-0.8-0.2-1.1-0.5L257,62.1z"/>
	</g>
</g>
</svg>
